<svg xmlns="http://www.w3.org/2000/svg" viewBox="0 0 40 40" fill="none" role="img" aria-label="Norah Masoud">
  <rect width="40" height="40" rx="10" fill="#111111"/>
  <path fill="#FFFFFF" d="M10.5 27V13h2.4l4.6 7.8 4.6-7.8h2.4v14h-2.3v-8.9l-4.3 7.3h-1.2l-4.3-7.3V27H10.5z"/>
  <path fill="#7C3AED" d="M25.2 27V13h5.1c2.9 0 4.7 1.5 4.7 3.8 0 1.7-1 3-2.7 3.4 1.8.4 3 1.8 3 3.6 0 2.5-2 4.2-5.1 4.2h-5zm2.2-2h2.7c1.4 0 2.2-.7 2.2-1.8 0-1.1-.8-1.8-2.2-1.8h-2.7V25zm0-5.4h2.5c1.3 0 2-.6 2-1.6 0-1-.7-1.6-2-1.6h-2.5v3.2z"/>
</svg>
