<svg xmlns="http://www.w3.org/2000/svg" viewBox="0 0 128 128" role="img" aria-label="Apple">
  <path fill="currentColor" d="M85.1267 35.4372 C76.7323 35.4372 69.8591 40.5639 65.4647 40.5639 C60.7887 40.5639 54.7042 35.4372 47.3802 35.4372 C33.4648 35.4372 19.3803 47.2682 19.3803 68.9019 C19.3803 82.4231 24.5634 96.6766 31.0422 105.8597 C36.5634 113.6343 41.4084 119.8878 48.3943 119.8878 C55.2676 119.8878 58.3098 115.4371 66.8732 115.4371 C75.5492 115.4371 77.5211 119.8878 85.1267 119.8878 C92.676 119.8878 97.6901 112.9582 102.4788 106.1413 C107.7746 98.3104 110.0281 90.7047 110.0844 90.3104 C109.6337 90.1977 95.2112 84.2822 95.2112 67.7752 C95.2112 53.4653 106.5351 47.0428 107.2112 46.5358 C99.7182 35.7752 88.2816 35.4372 85.1267 35.4372 Z M81.183 26.3104 C84.6196 22.1414 87.0422 16.4513 87.0422 10.7048 C87.0422 9.9161 86.9858 9.1274 86.8732 8.5076 C81.2394 8.733 74.4788 12.2259 70.4788 16.9583 C67.2676 20.564 64.338 26.3104 64.338 32.0569 C64.338 32.9583 64.507 33.8034 64.5633 34.0851 C64.9014 34.1414 65.4647 34.2541 66.0845 34.2541 C71.0985 34.2541 77.4084 30.8738 81.183 26.3104 Z"/>
</svg>
