<svg xmlns="http://www.w3.org/2000/svg" viewBox="0 0 24 24" role="img" aria-label="Behance">
  <path fill="#0057FF" d="M22 7h-7V5h7v2zm1.726 10c-.442 1.297-2.029 3-5.101 3-3.074 0-5.564-1.729-5.564-5.675 0-3.91 2.325-5.92 5.466-5.92 3.082 0 4.964 1.782 5.375 4.426.078.506.109 1.188.095 2.14H15.97c.13 3.211 3.483 3.312 4.631 2.042h3.125zM15.27 12.9h4.565c-.105-1.547-1.136-2.219-2.477-2.219-1.466 0-2.277.768-2.088 2.219zm-11.04 4.131H0V5.966h3.988c3.91 0 5.399 2.546 5.399 5.47 0 3.236-1.83 5.565-5.157 5.565zm.157-9.365H3.13v6.705h1.257c2.17 0 3.308-1.321 3.308-3.352 0-2.003-1.138-3.353-3.308-3.353z"/>
</svg>
