<svg xmlns="http://www.w3.org/2000/svg" viewBox="0 0 54 24" role="img" aria-label="Behance">
  <path fill="currentColor" d="M3 2h8.5c4.2 0 7 2.2 7 5.7 0 2.3-1.1 4-3 4.8 2.4.9 3.9 2.8 3.9 5.5 0 4-3.2 6.8-8.2 6.8H3V2zm4.5 4.2v5h3.5c2 0 3.2-1 3.2-2.6 0-1.5-1.1-2.4-3-2.4h-3.7zm0 8.7v5.4h4c2.2 0 3.6-1.1 3.6-2.8 0-1.6-1.3-2.6-3.6-2.6h-4z"/>
  <path fill="currentColor" d="M30 8.5h15v2.4H30V8.5z"/>
  <path fill="currentColor" d="M32.5 13.2h10c3.2 0 5.2 1.8 5.2 4.6 0 2.9-2.1 4.8-5.4 4.8h-9.8v-9.4zm4.2 2.3v5h4.8c1.5 0 2.4-.8 2.4-2.1 0-1.3-.9-2-2.6-2h-4.6z"/>
</svg>
