<svg xmlns="http://www.w3.org/2000/svg" style="display:none">
  <symbol id="icon-behance" viewBox="0 0 576 512">
    <path fill="currentColor" d="M232 237.2c31.8-15.2 48.4-38.2 48.4-74 0-70.6-52.6-87.8-113.8-87.8H0v354.4h171.8c64.4 0 124.9-30.2 124.9-102.9 0-44.8-21.6-77.4-64.7-93.7zM77.3 135.7H151c28.1 0 43.1 12.9 43.1 35.5 0 29.3-21.9 35.6-43.1 35.6H77.3V135.7zm82.4 233.7H77.3V256h82.4c34.2 0 53.4 13.3 53.4 38.9 0 27.9-26.2 74.5-53.4 74.5zM528 32H48C21.5 32 0 53.5 0 80v352c0 26.5 21.5 48 48 48h480c26.5 0 48-21.5 48-48V80c0-26.5-21.5-48-48-48zm-48 200.3c0 89.6-51.7 142-129.9 142-67.1 0-123.3-47.4-129.9-105.4l50.8-10.2c4.4 36.2 42.5 59.8 77.7 59.8 49.7 0 81.9-31.2 81.9-88.4V265h-81.9c-62.8 0-102.7-31-102.7-77.5 0-42.4 29.4-74.8 79.3-74.8 39.7 0 65.3 18.6 76.5 44.4h1.7l9.7-36.2h75.4l1 5.3zm-48.2 0c0 29.7-20 49.9-50.8 49.9-30.3 0-49.5-20.3-49.5-49.9 0-29.8 20.4-50 49.5-50 30.9 0 50.8 20.1 50.8 50z"/>
  </symbol>
  <symbol id="icon-linkedin" viewBox="0 0 448 512">
    <path fill="currentColor" d="M416 32H31.9C14.3 32 0 46.5 0 64.3v383.4C0 465.5 14.3 480 31.9 480H416c17.6 0 32-14.5 32-32.3V64.3c0-17.8-14.4-32.3-32-32.3zM135.4 416H69V202.2h66.5V416zm-33.2-243c-21.3 0-38.5-17.3-38.5-38.5S80.9 96 102.2 96c21.2 0 38.5 17.3 38.5 38.5 0 21.3-17.2 38.5-38.5 38.5zm282.1 243h-66.4V312c0-24.8-.5-56.7-34.5-56.7-34.6 0-39.9 27-39.9 54.9V416h-66.4V202.2h63.7v29.2h.9c8.9-16.8 30.6-34.5 62.9-34.5 67.2 0 79.7 44.3 79.7 101.8V416z"/>
  </symbol>
  <symbol id="icon-envelope" viewBox="0 0 512 512">
    <path fill="currentColor" d="M48 64C21.5 64 0 85.5 0 112v288c0 26.5 21.5 48 48 48h416c26.5 0 48-21.5 48-48V112c0-26.5-21.5-48-48-48H48zm212.5 139.2l124-93.9c7.7-5.8 18.7-4.3 24.5 3.4s4.3 18.7-3.4 24.5l-124 93.9c-10.4 7.8-24.5 7.8-34.9 0l-124-93.9c-7.7-5.8-9.2-16.7-3.4-24.5s16.7-9.2 24.5-3.4l124 93.9zM48 136.7l111.6 83.7c20.7 15.6 49.1 15.6 69.8 0L341 136.7V400H48V136.7z"/>
  </symbol>
  <symbol id="icon-phone" viewBox="0 0 512 512">
    <path fill="currentColor" d="M493.4 24.6l-104-24c-11.3-2.6-22.9 3.3-27.5 13.9l-48 112c-4.2 9.8-1.4 21.3 6.9 28.1l60.6 49.6c-36 76.7-98.9 140.5-177.2 177.2l-49.6-60.6c-6.8-8.3-18.3-11.1-28.1-6.9l-112 48C3.3 402.5-2.6 414.1 0 425.4l24 104C27.2 439.9 36.5 448 48 448h16c221.2 0 400-178.8 400-400v-16c0-11.5-8.1-20.8-18.6-23.4z"/>
  </symbol>
</svg>
